#!OML:ASF H:\Dans Jumps\Project 1\Capture day 1\Session 1\subject.ASF
:FULLY-SPECIFIED
:DEGREES
447
root 0.192752 22.2797 -9.82393 9.924 3.76941 -0.539311
lowerback 13.1925 -0.296913 -2.71356
upperback 6.40745 -0.652977 1.90865
thorax -0.605977 -0.406747 3.6098
lowerneck -14.4384 -0.482708 -1.76902
upperneck 27.4796 -0.717406 1.76665
head 11.3164 -0.28502 0.85161
rclavicle 6.06293e-015 -5.76476e-015
rhumerus -32.7727 7.19623 -89.1352
rradius 97.9193
rwrist 8.85886
rhand -29.814 -25.5693
rfingers 7.12502
rthumb -3.13783 -55.526
lclavicle 6.06293e-015 -5.76476e-015
lhumerus -44.7797 -23.4005 100.79
lradius 106.221
lwrist 39.932
lhand -25.8535 -12.9197
lfingers 7.12502
lthumb 0.687223 17.059
rfemur -36.6373 -6.98535 21.5037
rtibia 42.2013
rfoot 15.5918 -4.60389
rtoes 17.1783
lfemur -40.4339 7.18185 -19.7138
ltibia 44.1975
lfoot 20.5244 -1.56055
ltoes 5.54006
448
root 0.19228 22.2272 -9.72689 9.92462 3.84751 -0.53474
lowerback 12.9369 -0.290252 -2.6471
upperback 6.43671 -0.632319 1.87225
thorax -0.441737 -0.39779 3.52696
lowerneck -14.3163 -0.515766 -1.73616
upperneck 27.5585 -0.798225 1.84539
head 11.3239 -0.30851 0.864251
rclavicle -8.64713e-015 -3.77691e-015
rhumerus -32.8057 7.14392 -89.2732
rradius 97.431
rwrist 8.83815
rhand -29.8217 -25.6143
rfingers 7.12502
rthumb -3.14527 -55.5709
lclavicle -8.64713e-015 -3.77691e-015
lhumerus -44.8819 -23.5874 100.871
lradius 105.747
lwrist 39.441
lhand -25.9472 -12.9405
lfingers 7.12502
lthumb 0.596713 17.0385
rfemur -36.5544 -7.16279 21.5083
rtibia 41.1164
rfoot 15.7165 -4.58426
rtoes 16.8957
lfemur -40.3019 7.302 -19.8013
ltibia 43.0045
lfoot 20.6442 -1.77328
ltoes 5.72699
449
root 0.192528 22.162 -9.62506 9.9011 3.88893 -0.554012
lowerback 12.6291 -0.275867 -2.55867
upperback 6.46636 -0.598594 1.83688
thorax -0.250212 -0.382203 3.43067
lowerneck -14.1637 -0.55026 -1.70563
upperneck 27.6354 -0.876078 1.90788
head 11.3244 -0.333029 0.871786
rclavicle -6.16232e-015 1.98785e-015
rhumerus -32.8562 7.12184 -89.409
rradius 97.0023
rwrist 8.80387
rhand -29.8348 -25.6581
rfingers 7.12502
rthumb -3.1579 -55.6145
lclavicle -6.16232e-015 1.98785e-015
lhumerus -45.0135 -23.7154 100.939
lradius 105.349
lwrist 39.0483
lhand -26.0668 -12.9756
lfingers 7.12502
lthumb 0.481216 17.0036
rfemur -36.3839 -7.31637 21.5172
rtibia 40.0226
rfoot 15.8768 -4.57738
rtoes 16.6152
lfemur -40.0602 7.43124 -19.8367
ltibia 41.7604
lfoot 20.7718 -1.95705
ltoes 5.93509
450
root 0.193665 22.0846 -9.51813 9.84149 3.88761 -0.585282
lowerback 12.2749 -0.250575 -2.46054
upperback 6.50049 -0.549389 1.79905
thorax -0.0300163 -0.358972 3.32434
lowerneck -13.9781 -0.585429 -1.67134
upperneck 27.7135 -0.949469 1.94714
head 11.3185 -0.358153 0.870855
rclavicle -1.13307e-014 1.51076e-014
rhumerus -32.9179 7.13519 -89.5418
rradius 96.6233
rwrist 8.75925
rhand -29.8635 -25.7026
rfingers 7.12502
rthumb -3.18562 -55.6585
lclavicle -1.13307e-014 1.51076e-014
lhumerus -45.1574 -23.7825 100.979
lradius 105.024
lwrist 38.8433
lhand -26.1738 -12.9861
lfingers 7.12502
lthumb 0.377863 16.9933
rfemur -36.1071 -7.43198 21.5097
rtibia 38.924
rfoot 16.0907 -4.56572
rtoes 16.3655
lfemur -39.6867 7.56207 -19.8265
ltibia 40.4678
lfoot 20.8923 -2.11937
ltoes 6.10121
